<mxfile host="app.diagrams.net" agent="Mozilla/5.0 (Windows NT 10.0; Win64; x64) AppleWebKit/537.36 (KHTML, like Gecko) Chrome/128.0.0.0 Safari/537.36" version="24.7.16">
  <diagram id="C5RBs43oDa-KdzZeNtuy" name="Page-1">
    <mxGraphModel dx="1221" dy="759" grid="1" gridSize="10" guides="1" tooltips="1" connect="1" arrows="1" fold="1" page="1" pageScale="1" pageWidth="827" pageHeight="1169" math="0" shadow="0">
      <root>
        <mxCell id="0" />
        <mxCell id="1" parent="0" />
        <mxCell id="2" value="Customer" style="rounded=1;whiteSpace=wrap;html=1;" vertex="1" parent="1">
          <mxGeometry x="100" y="60" width="120" height="50" as="geometry" />
        </mxCell>
        <mxCell id="3" value="customer_id" style="ellipse;whiteSpace=wrap;html=1;" vertex="1" parent="1">
          <mxGeometry x="20" y="30" width="80" height="40" as="geometry" />
        </mxCell>
        <mxCell id="4" style="ellipse;whiteSpace=wrap;html=1;" edge="1" parent="1" source="3" target="2">
          <mxGeometry relative="1" as="geometry" />
        </mxCell>
        <mxCell id="5" value="phone_number" style="ellipse;whiteSpace=wrap;html=1;" vertex="1" parent="1">
          <mxGeometry x="20" y="90" width="80" height="40" as="geometry" />
        </mxCell>
        <mxCell id="6" value="email" style="ellipse;whiteSpace=wrap;html=1;" vertex="1" parent="1">
          <mxGeometry x="20" y="150" width="80" height="40" as="geometry" />
        </mxCell>
        <mxCell id="7" edge="1" parent="1" source="5" target="2">
          <mxGeometry relative="1" as="geometry" />
        </mxCell>
        <mxCell id="8" edge="1" parent="1" source="6" target="2">
          <mxGeometry relative="1" as="geometry" />
        </mxCell>
        <mxCell id="9" value="Bank Account" style="rounded=1;whiteSpace=wrap;html=1;" vertex="1" parent="1">
          <mxGeometry x="250" y="60" width="140" height="50" as="geometry" />
        </mxCell>
        <mxCell id="10" value="account_number" style="ellipse;whiteSpace=wrap;html=1;" vertex="1" parent="1">
          <mxGeometry x="410" y="30" width="100" height="40" as="geometry" />
        </mxCell>
        <mxCell id="11" value="balance" style="ellipse;whiteSpace=wrap;html=1;" vertex="1" parent="1">
          <mxGeometry x="410" y="90" width="100" height="40" as="geometry" />
        </mxCell>
        <mxCell id="12" value="creation_date" style="ellipse;whiteSpace=wrap;html=1;" vertex="1" parent="1">
          <mxGeometry x="410" y="150" width="100" height="40" as="geometry" />
        </mxCell>
        <mxCell id="13" edge="1" parent="1" source="10" target="9">
          <mxGeometry relative="1" as="geometry" />
        </mxCell>
        <mxCell id="14" edge="1" parent="1" source="11" target="9">
          <mxGeometry relative="1" as="geometry" />
        </mxCell>
        <mxCell id="15" edge="1" parent="1" source="12" target="9">
          <mxGeometry relative="1" as="geometry" />
        </mxCell>
        <mxCell id="16" value="Has" style="rhombus;whiteSpace=wrap;html=1;" vertex="1" parent="1">
          <mxGeometry x="180" y="60" width="60" height="40" as="geometry" />
        </mxCell>
        <mxCell id="17" edge="1" parent="1" source="2" target="16">
          <mxGeometry relative="1" as="geometry" />
        </mxCell>
        <mxCell id="18" edge="1" parent="1" source="16" target="9">
          <mxGeometry relative="1" as="geometry" />
        </mxCell>
        <mxCell id="19" value="Transaction" style="rounded=1;whiteSpace=wrap;html=1;" vertex="1" parent="1">
          <mxGeometry x="250" y="220" width="120" height="50" as="geometry" />
        </mxCell>
        <mxCell id="20" value="transaction_id" style="ellipse;whiteSpace=wrap;html=1;" vertex="1" parent="1">
          <mxGeometry x="410" y="190" width="100" height="40" as="geometry" />
        </mxCell>
        <mxCell id="21" value="amount" style="ellipse;whiteSpace=wrap;html=1;" vertex="1" parent="1">
          <mxGeometry x="410" y="250" width="100" height="40" as="geometry" />
        </mxCell>
        <mxCell id="22" value="timestamp" style="ellipse;whiteSpace=wrap;html=1;" vertex="1" parent="1">
          <mxGeometry x="410" y="310" width="100" height="40" as="geometry" />
        </mxCell>
        <mxCell id="23" edge="1" parent="1" source="20" target="19">
          <mxGeometry relative="1" as="geometry" />
        </mxCell>
        <mxCell id="24" edge="1" parent="1" source="21" target="19">
          <mxGeometry relative="1" as="geometry" />
        </mxCell>
        <mxCell id="25" edge="1" parent="1" source="22" target="19">
          <mxGeometry relative="1" as="geometry" />
        </mxCell>
        <mxCell id="26" value="Has" style="rhombus;whiteSpace=wrap;html=1;" vertex="1" parent="1">
          <mxGeometry x="180" y="220" width="60" height="40" as="geometry" />
        </mxCell>
        <mxCell id="27" edge="1" parent="1" source="9" target="26">
          <mxGeometry relative="1" as="geometry" />
        </mxCell>
        <mxCell id="28" edge="1" parent="1" source="26" target="19">
          <mxGeometry relative="1" as="geometry" />
        </mxCell>
        <mxCell id="29" value="Loan" style="rounded=1;whiteSpace=wrap;html=1;" vertex="1" parent="1">
          <mxGeometry x="100" y="320" width="100" height="50" as="geometry" />
        </mxCell>
        <mxCell id="30" value="loan_id" style="ellipse;whiteSpace=wrap;html=1;" vertex="1" parent="1">
          <mxGeometry x="40" y="290" width="80" height="40" as="geometry" />
        </mxCell>
        <mxCell id="31" value="loan_amount" style="ellipse;whiteSpace=wrap;html=1;" vertex="1" parent="1">
          <mxGeometry x="40" y="360" width="80" height="40" as="geometry" />
        </mxCell>
        <mxCell id="32" value="interest_rate" style="ellipse;whiteSpace=wrap;html=1;" vertex="1" parent="1">
          <mxGeometry x="40" y="430" width="80" height="40" as="geometry" />
        </mxCell>
        <mxCell id="33" edge="1" parent="1" source="30" target="29">
          <mxGeometry relative="1" as="geometry" />
        </mxCell>
        <mxCell id="34" edge="1" parent="1" source="31" target="29">
          <mxGeometry relative="1" as="geometry" />
        </mxCell>
        <mxCell id="35" edge="1" parent="1" source="32" target="29">
          <mxGeometry relative="1" as="geometry" />
        </mxCell>
        <mxCell id="36" value="Has" style="rhombus;whiteSpace=wrap;html=1;" vertex="1" parent="1">
          <mxGeometry x="200" y="320" width="60" height="40" as="geometry" />
        </mxCell>
        <mxCell id="37" edge="1" parent="1" source="2" target="36">
          <mxGeometry relative="1" as="geometry" />
        </mxCell>
        <mxCell id="38" edge="1" parent="1" source="36" target="29">
          <mxGeometry relative="1" as="geometry" />
        </mxCell>
        <mxCell id="39" value="Loan Repayment" style="rounded=1;whiteSpace=wrap;html=1;" vertex="1" parent="1">
          <mxGeometry x="250" y="400" width="140" height="50" as="geometry" />
        </mxCell>
        <mxCell id="40" value="repayment_id" style="ellipse;whiteSpace=wrap;html=1;" vertex="1" parent="1">
          <mxGeometry x="410" y="370" width="100" height="40" as="geometry" />
        </mxCell>
        <mxCell id="41" value="repayment_amount" style="ellipse;whiteSpace=wrap;html=1;" vertex="1" parent="1">
          <mxGeometry x="410" y="430" width="100" height="40" as="geometry" />
        </mxCell>
        <mxCell id="42" value="repayment_date" style="ellipse;whiteSpace=wrap;html=1;" vertex="1" parent="1">
          <mxGeometry x="410" y="490" width="100" height="40" as="geometry" />
        </mxCell>
        <mxCell id="43" edge="1" parent="1" source="40" target="39">
          <mxGeometry relative="1" as="geometry" />
        </mxCell>
        <mxCell id="44" edge="1" parent="1" source="41" target="39">
          <mxGeometry relative="1" as="geometry" />
        </mxCell>
        <mxCell id="45" edge="1" parent="1" source="42" target="39">
          <mxGeometry relative="1" as="geometry" />
        </mxCell>
        <mxCell id="46" value="Has" style="rhombus;whiteSpace=wrap;html=1;" vertex="1" parent="1">
          <mxGeometry x="200" y="400" width="60" height="40" as="geometry" />
        </mxCell>
        <mxCell id="47" edge="1" parent="1" source="29" target="46">
          <mxGeometry relative="1" as="geometry" />
        </mxCell>
        <mxCell id="48" edge="1" parent="1" source="46" target="39">
          <mxGeometry relative="1" as="geometry" />
        </mxCell>
        <mxCell id="49" value="Card" style="rounded=1;whiteSpace=wrap;html=1;" vertex="1" parent="1">
          <mxGeometry x="100" y="540" width="100" height="50" as="geometry" />
        </mxCell>
        <mxCell id="50" value="card_number" style="ellipse;whiteSpace=wrap;html=1;" vertex="1" parent="1">
          <mxGeometry x="40" y="510" width="80" height="40" as="geometry" />
        </mxCell>
        <mxCell id="51" value="card_type" style="ellipse;whiteSpace=wrap;html=1;" vertex="1" parent="1">
          <mxGeometry x="40" y="570" width="80" height="40" as="geometry" />
        </mxCell>
        <mxCell id="52" edge="1" parent="1" source="50" target="49">
          <mxGeometry relative="1" as="geometry" />
        </mxCell>
        <mxCell id="53" edge="1" parent="1" source="51" target="49">
          <mxGeometry relative="1" as="geometry" />
        </mxCell>
        <mxCell id="54" value="Has" style="rhombus;whiteSpace=wrap;html=1;" vertex="1" parent="1">
          <mxGeometry x="200" y="540" width="60" height="40" as="geometry" />
        </mxCell>
        <mxCell id="55" edge="1" parent="1" source="2" target="54">
          <mxGeometry relative="1" as="geometry" />
        </mxCell>
        <mxCell id="56" edge="1" parent="1" source="54" target="49">
          <mxGeometry relative="1" as="geometry" />
        </mxCell>
        <mxCell id="57" value="Investment Portfolio" style="rounded=1;whiteSpace=wrap;html=1;" vertex="1" parent="1">
          <mxGeometry x="300" y="540" width="140" height="50" as="geometry" />
        </mxCell>
        <mxCell id="58" value="portfolio_id" style="ellipse;whiteSpace=wrap;html=1;" vertex="1" parent="1">
          <mxGeometry x="460" y="510" width="100" height="40" as="geometry" />
        </mxCell>
        <mxCell id="59" edge="1" parent="1" source="58" target="57">
          <mxGeometry relative="1" as="geometry" />
        </mxCell>
        <mxCell id="60" value="Has" style="rhombus;whiteSpace=wrap;html=1;" vertex="1" parent="1">
          <mxGeometry x="220" y="540" width="60" height="40" as="geometry" />
        </mxCell>
        <mxCell id="61" edge="1" parent="1" source="2" target="60">
          <mxGeometry relative="1" as="geometry" />
        </mxCell>
        <mxCell id="62" edge="1" parent="1" source="60" target="57">
          <mxGeometry relative="1" as="geometry" />
        </mxCell>
        <mxCell id="63" value="Bank Branch" style="rounded=1;whiteSpace=wrap;html=1;" vertex="1" parent="1">
          <mxGeometry x="550" y="60" width="140" height="50" as="geometry" />
        </mxCell>
        <mxCell id="64" value="branch_id" style="ellipse;whiteSpace=wrap;html=1;" vertex="1" parent="1">
          <mxGeometry x="710" y="30" width="100" height="40" as="geometry" />
        </mxCell>
        <mxCell id="65" value="physical_address" style="ellipse;whiteSpace=wrap;html=1;" vertex="1" parent="1">
          <mxGeometry x="710" y="90" width="100" height="40" as="geometry" />
        </mxCell>
        <mxCell id="66" edge="1" parent="1" source="64" target="63">
          <mxGeometry relative="1" as="geometry" />
        </mxCell>
        <mxCell id="67" edge="1" parent="1" source="65" target="63">
          <mxGeometry relative="1" as="geometry" />
        </mxCell>
        <mxCell id="68" value="ATM" style="rounded=1;whiteSpace=wrap;html=1;" vertex="1" parent="1">
          <mxGeometry x="750" y="60" width="80" height="50" as="geometry" />
        </mxCell>
        <mxCell id="69" value="atm_id" style="ellipse;whiteSpace=wrap;html=1;" vertex="1" parent="1">
          <mxGeometry x="850" y="30" width="80" height="40" as="geometry" />
        </mxCell>
        <mxCell id="70" edge="1" parent="1" source="69" target="68">
          <mxGeometry relative="1" as="geometry" />
        </mxCell>
        <mxCell id="71" value="Has" style="rhombus;whiteSpace=wrap;html=1;" vertex="1" parent="1">
          <mxGeometry x="710" y="60" width="40" height="40" as="geometry" />
        </mxCell>
        <mxCell id="72" edge="1" parent="1" source="63" target="71">
          <mxGeometry relative="1" as="geometry" />
        </mxCell>
        <mxCell id="73" edge="1" parent="1" source="71" target="68">
          <mxGeometry relative="1" as="geometry" />
        </mxCell>
        <mxCell id="74" value="Employee" style="rounded=1;whiteSpace=wrap;html=1;" vertex="1" parent="1">
          <mxGeometry x="550" y="200" width="120" height="50" as="geometry" />
        </mxCell>
        <mxCell id="75" value="employee_id" style="ellipse;whiteSpace=wrap;html=1;" vertex="1" parent="1">
          <mxGeometry x="680" y="170" width="100" height="40" as="geometry" />
        </mxCell>
        <mxCell id="76" edge="1" parent="1" source="75" target="74">
          <mxGeometry relative="1" as="geometry" />
        </mxCell>
        <mxCell id="77" value="Works At" style="rhombus;whiteSpace=wrap;html=1;" vertex="1" parent="1">
          <mxGeometry x="490" y="200" width="60" height="40" as="geometry" />
        </mxCell>
        <mxCell id="78" edge="1" parent="1" source="63" target="77">
          <mxGeometry relative="1" as="geometry" />
        </mxCell>
        <mxCell id="79" edge="1" parent="1" source="77" target="74">
          <mxGeometry relative="1" as="geometry" />
        </mxCell>
        <mxCell id="80" value="ISA" style="triangle;whiteSpace=wrap;html=1;" vertex="1" parent="1">
          <mxGeometry x="500" y="300" width="50" height="50" as="geometry" />
        </mxCell>
        <mxCell id="81" value="Branch Manager" style="rounded=1;whiteSpace=wrap;html=1;" vertex="1" parent="1">
          <mxGeometry x="450" y="370" width="120" height="50" as="geometry" />
        </mxCell>
        <mxCell id="82" value="Loan Officer" style="rounded=1;whiteSpace=wrap;html=1;" vertex="1" parent="1">
          <mxGeometry x="550" y="370" width="120" height="50" as="geometry" />
        </mxCell>
        <mxCell id="83" edge="1" parent="1" source="80" target="81">
          <mxGeometry relative="1" as="geometry" />
        </mxCell>
        <mxCell id="84" edge="1" parent="1" source="80" target="82">
          <mxGeometry relative="1" as="geometry" />
        </mxCell>
      </root>
    </mxGraphModel>
  </diagram>
</mxfile>
